<?xml version="1.0" encoding="utf-8"?>
<!-- Generator: Adobe Illustrator 23.0.3, SVG Export Plug-In . SVG Version: 6.00 Build 0)  -->
<svg version="1.1" id="logolayer" xmlns="http://www.w3.org/2000/svg" xmlns:xlink="http://www.w3.org/1999/xlink" x="0px" y="0px"
	 viewBox="0 0 510 80"  xml:space="preserve">
<style type="text/css">
	.st0{fill:#474A4A;width:200px;height:100%;}
</style>
<g id="logo">
	<path class="st0" d="M62.52,36.25c5.61,0.12,8.42,1.27,8.42,3.43c0,1.03-1.33,3.26-3.98,6.67l-16.83,21.4L31.44,43.74
		c-2.25-2.74-3.38-4.46-3.38-5.17c0-0.9,0.64-1.52,1.91-1.84c1.27-0.32,3.63-0.48,7.1-0.48v-2.22H5.78v2.22
		c3.21,0.07,5.52,0.52,6.93,1.35c1.41,0.84,3.32,2.78,5.74,5.84l24.62,31.75h4.86l22.53-28.3c3.5-4.44,6.22-7.31,8.16-8.58
		c1.94-1.28,4.36-1.96,7.23-2.06v-2.22H62.52V36.25z M105.66,15.86c1.72,1,3.79,1.5,6.21,1.5c2.42,0,4.48-0.5,6.17-1.5
		c1.69-1,2.53-2.21,2.53-3.63c0-1.38-0.84-2.58-2.53-3.58c-1.69-0.99-3.75-1.49-6.17-1.49c-2.42,0-4.49,0.5-6.21,1.49
		c-1.72,1-2.58,2.19-2.58,3.58C103.08,13.66,103.94,14.87,105.66,15.86z M122.19,70.51c-1.41-0.58-2.23-1.42-2.45-2.51
		c-0.23-1.1-0.34-3.75-0.34-7.97V32.44h-1.86c-5.53,1.12-13.31,1.98-23.34,2.56v2.22h2.28c3.16,0,5.37,0.13,6.64,0.39
		c1.27,0.26,2.29,0.91,3.04,1.94c0.76,1.03,1.14,3.87,1.14,8.5v11.99c0,4.41-0.1,7.08-0.3,7.99c-0.2,0.92-0.9,1.71-2.11,2.37
		c-1.21,0.66-3.82,0.99-7.82,0.99H94.2v2.22h37.29v-2.22h-1.78C126.1,71.38,123.6,71.09,122.19,70.51z M172.22,49.44
		c-6.37-1.64-10.68-3.11-12.94-4.4c-2.31-1.26-3.47-2.75-3.47-4.5c0-1.58,1.04-2.96,3.13-4.16c2.09-1.19,4.82-1.79,8.2-1.79
		c4.4,0,8.22,1.05,11.46,3.17c3.24,2.11,5.42,4.63,6.55,7.56h3.13V33.11h-3.13c-1.35,1.87-2.45,3.04-3.29,3.53
		c-3.95-2.8-8.93-4.2-14.97-4.2c-5.92,0-10.51,1.18-13.79,3.55c-3.27,2.37-4.9,4.86-4.9,7.46c0,2.74,1.52,5.04,4.56,6.91
		c3.04,1.9,8.06,3.83,15.05,5.8c6.65,1.87,11.13,3.46,13.45,4.78c2.25,1.33,3.38,3.02,3.38,5.08c0,1.77-1.06,3.4-3.17,4.88
		c-2.12,1.48-5.32,2.22-9.6,2.22c-9.86,0-16.71-3.75-20.55-11.26h-3.29v13h3.29c0.96-1.81,2.2-3.19,3.72-4.16
		c4.95,3,10.62,4.49,16.99,4.49c6.03,0,11.03-1.08,15.01-3.23c3.98-2.16,5.96-4.97,5.96-8.41c0-2.18-1.07-4.48-3.21-6.86
		C187.66,54.34,181.8,51.92,172.22,49.44z M280.6,68.09c-0.23-1.1-0.34-3.8-0.34-8.12V34.03h-24.18v2.22h1.78
		c4,0,6.64,0.35,7.9,1.04c1.27,0.69,1.99,1.51,2.16,2.44c0.17,0.93,0.26,3.56,0.26,7.88v8.94c0,3.38-0.73,5.98-2.17,7.8
		c-1.44,1.82-4.15,3.54-8.09,5.17c-3.96,1.63-8.11,2.44-12.46,2.44c-3.05,0-5.73-0.46-8.05-1.38c-2.32-0.92-3.76-1.99-4.32-3.21
		c-0.57-1.23-0.85-3.19-0.85-5.9V34.03h-23.42v2.22c4,0,6.75,0.24,8.24,0.73c1.49,0.48,2.38,1.23,2.66,2.24
		c0.29,1.02,0.43,3.81,0.43,8.39v13.48c0,3.51,0.66,6.13,1.99,7.88c1.32,1.74,3.76,3.21,7.31,4.42c3.55,1.21,7.64,1.81,12.26,1.81
		c5.35,0,10.24-0.77,14.66-2.32c4.43-1.55,8.36-3.85,11.81-6.91c0.1,4.35,1.06,7.4,2.87,9.18h1.01c3.95-0.97,10.2-1.48,18.77-1.55
		v-2.22c-3.72,0-6.3-0.28-7.73-0.82C281.65,70.01,280.82,69.19,280.6,68.09z M370.82,71.09c-2.26,0-3.74-0.52-4.41-1.59
		c-0.68-1.06-1.02-3.46-1.02-7.2V46.3c0-3.38-0.64-5.9-1.9-7.54c-1.27-1.64-3.88-3.11-7.82-4.4c-3.95-1.29-9.5-1.93-16.66-1.93
		c-9.64,0-16.74,1.05-21.31,3.16c-4.56,2.11-6.85,4.08-6.85,5.92c0,1.87,1.72,2.8,5.16,2.8c3.83,0,6.2-1.64,7.11-4.93
		c0.96-3.22,5.68-4.83,14.16-4.83c4.24,0,7.65,0.49,10.26,1.45c2.6,0.97,4.2,2.06,4.84,3.29c0.61,1.23,0.92,3.21,0.92,5.94v1.93
		l-13.12,3.04c-10,2.35-17.83,4.76-23.51,7.25c-5.68,2.48-8.51,5.38-8.51,8.7c0,2.54,1.69,4.59,5.08,6.14
		c3.39,1.54,7.43,2.32,12.12,2.32c3.67,0,7.84-0.59,12.49-1.74c4.67-1.16,9.82-2.88,15.46-5.17c0.68,2.29,2.12,4.01,4.35,5.17
		c2.21,1.16,5.24,1.74,9.06,1.74c8.94,0,13.66-2.76,14.17-8.27h-3.08C376.87,69.51,374.55,71.09,370.82,71.09z M353.29,65.1
		c-4.34,2-8.28,3.5-11.78,4.49c-3.51,1-6.58,1.49-9.25,1.49c-3,0-5.43-0.62-7.29-1.86c-1.87-1.24-2.8-2.88-2.8-4.9
		c0-5.12,7.29-9.37,21.87-12.76l9.24-2.12V65.1z M418.04,70.51c-1.42-0.58-2.21-1.42-2.42-2.51c-0.19-1.1-0.29-3.75-0.29-7.97V7.17
		h-1.86c-1.74,0.45-4.93,0.9-9.55,1.35c-4.64,0.45-8.67,0.68-12.09,0.68v2.22c5.02,0,8.17,0.53,9.47,1.61
		c1.29,1.08,1.94,3.7,1.94,7.86v39.14c0,4.57-0.15,7.34-0.42,8.31c-0.28,0.96-1.14,1.71-2.57,2.25c-1.45,0.53-3.85,0.8-7.24,0.8
		h-2.36v2.22h36.96v-2.22h-2.04C421.96,71.38,419.45,71.09,418.04,70.51z M479.88,72.59c-7.58,0-13.27-1.75-17.08-5.23
		c-3.82-3.49-5.72-8.7-5.72-15.65c0-0.93,0.11-2.35,0.33-4.24h48.37c-0.28-3.68-2.9-7.11-7.87-10.28
		c-4.97-3.17-11.99-4.75-21.08-4.75c-9.66,0-17.69,2.07-24.13,6.21c-6.44,4.14-9.66,9.33-9.66,15.59c0,4.41,1.67,8.16,5,11.25
		c3.33,3.09,7.61,5.49,12.82,7.18c5.22,1.69,10.77,2.53,16.64,2.53c6.33,0,12.16-0.93,17.53-2.77c5.36-1.86,8.94-4.42,10.74-7.71
		h-4.03C497.45,69.96,490.16,72.59,479.88,72.59z M476.15,34.56c4.24,0,7.81,0.79,10.71,2.35c2.92,1.56,4.37,3.76,4.37,6.59
		c0,0.58-0.09,1.24-0.26,1.98h-33.23C459.74,38.2,465.87,34.56,476.15,34.56z"/>
</g>
</svg>
