<svg version="1.1" id="logo" xmlns="http://www.w3.org/2000/svg" xmlns:xlink="http://www.w3.org/1999/xlink" x="0px" y="0px"
	 viewBox="0 0 214 200"  xml:space="preserve">
<style type="text/css">
	.st0{fill:#73E9FF;}
</style>
<path id="contact" class="st0" d="M62.56,113.32c5-2.22,6.44-1.62,10.93-4.66c4.41-3.07,9.29-10.52,9.54-11.31
	c-1.57-1.98-3.07-4.06-4.48-6.32C75.13,85.48,72.43,77,70.51,68.7c-3.59-0.36-6.72-4.83-7.22-10.53c-0.44-4.91,1.22-9.23,3.87-10.97
	C66.3,26.3,77.53,10.24,94.33,6.82c-4.06-3-8.86-4.95-14.19-5.59c-0.01,0-0.02,0-0.03,0c-0.8-0.1-1.62-0.16-2.45-0.2
	c-0.07,0-0.14-0.01-0.21-0.01C77.06,1.01,76.66,1,76.26,1c0,0-0.01,0-0.01,0s-0.01,0-0.01,0c-0.4,0-0.8,0.01-1.19,0.02
	c-0.07,0-0.14,0.01-0.21,0.01c-0.83,0.03-1.64,0.1-2.45,0.2c-0.01,0-0.02,0-0.03,0c-17.11,2.05-28.8,17.62-27.95,38.2
	c-2.48,1.63-4.03,5.68-3.62,10.27c0.47,5.34,3.4,9.52,6.76,9.86c1.8,7.78,4.33,15.71,7.54,20.9c1.32,2.12,2.72,4.07,4.19,5.92
	c-0.23,0.74-4.8,7.72-8.93,10.59c-4.21,2.85-5.55,2.28-10.23,4.36c-3.96,1.73-8.3,3.51-12.33,5.3c-7.98,3.56-12.4,6.61-17.49,15.44
	c-2.49,4.32-5.11,11.06-6.07,16.23l-2.39,13.03c-0.49,2.73,8.56,5.68,21.18,8.12l1.22-6.63c1.02-5.53,3.82-12.73,6.48-17.34
	c5.44-9.43,10.16-12.69,18.68-16.5C53.7,117.07,58.34,115.17,62.56,113.32z M212.08,183.44l-2.76-15.06
	c-1.1-5.98-4.13-13.77-7.01-18.76c-5.88-10.2-10.99-13.72-20.21-17.84c-4.66-2.06-9.67-4.12-14.24-6.12
	c-5.41-2.4-6.96-1.75-11.83-5.04c-4.77-3.32-10.05-11.38-10.32-12.24c1.7-2.14,3.32-4.39,4.84-6.84c3.71-6,6.63-15.16,8.71-24.15
	c3.88-0.39,7.26-5.22,7.81-11.39c0.47-5.31-1.32-9.99-4.18-11.87c0.98-23.78-12.53-41.77-32.3-44.14c-0.01,0-0.02,0-0.03,0
	c-0.93-0.11-1.87-0.19-2.83-0.23c-0.08,0-0.16-0.01-0.25-0.01c-0.46-0.02-0.91-0.03-1.38-0.03c0,0-0.01,0-0.01,0c0,0-0.01,0-0.01,0
	c-0.46,0-0.92,0.01-1.38,0.03c-0.08,0-0.16,0.01-0.25,0.01c-0.96,0.04-1.9,0.12-2.83,0.23c-0.01,0-0.02,0-0.03,0
	c-19.77,2.37-33.27,20.36-32.3,44.14c-2.87,1.88-4.66,6.56-4.18,11.87c0.55,6.17,3.93,11,7.81,11.39c2.08,8.99,5,18.15,8.71,24.15
	c1.52,2.44,3.14,4.7,4.84,6.84c-0.27,0.85-5.55,8.92-10.32,12.24c-4.86,3.29-6.42,2.64-11.83,5.04c-4.57,2-9.59,4.06-14.24,6.12
	c-9.22,4.12-14.32,7.64-20.21,17.84c-2.88,4.99-5.91,12.77-7.01,18.76l-2.76,15.06C38.83,190.57,93.95,199,125.56,199
	S213.37,190.57,212.08,183.44z"/>
</svg>
