<?xml version="1.0" encoding="utf-8"?>
<!-- Generator: Adobe Illustrator 23.0.4, SVG Export Plug-In . SVG Version: 6.00 Build 0)  -->
<svg version="1.1" id="emblem" xmlns="http://www.w3.org/2000/svg" xmlns:xlink="http://www.w3.org/1999/xlink" x="0px" y="0px"
	 viewBox="0 0 158 124" style="enable-background:new 0 0 158 124;" xml:space="preserve">
<style type="text/css">
	.st0{fill:#73E9FF;}
</style>
<path id="design-emblem" class="st0" d="M156.63,67.04h-14.7l-4.8,12.17c-4.59,0.91-8.98,1.44-13.2,1.58
	c-17.72,0.65-32.61-5.08-47.85-13.75H24.13l-23.5,34.74H143.5L156.63,67.04z M38.92,39.72c4.62,2.97,9.05,5.91,13.35,8.74
	c27.97,18.49,51.25,32.91,83.45,26.93l15.87-38.96c-27.3,5.45-45.9-6.85-69.43-22.42c-3.58-2.37-7.26-4.81-11.12-7.27
	c-9.93-6.36-22.61-8.97-33.01,0.26L3.62,36.28C14.38,29.19,28.47,33.04,38.92,39.72z M0.63,104.76V123h144.44l11.56-35.82V71.97
	l-11.56,32.79H0.63z"/>
</svg>
