<?xml version="1.0" encoding="utf-8"?>
<!-- Generator: Adobe Illustrator 23.0.4, SVG Export Plug-In . SVG Version: 6.00 Build 0)  -->
<svg version="1.1" id="emblem" xmlns="http://www.w3.org/2000/svg" xmlns:xlink="http://www.w3.org/1999/xlink" x="0px" y="0px"
	 viewBox="0 0 126 124" style="enable-background:new 0 0 126 124;" xml:space="preserve">
<style type="text/css">
	.st0{fill:#70E3F2;}
</style>
<path id="id-emblem" class="st0" d="M125.12,114.51c-1.37-7.62-2.55-15.27-7.06-21.73c-4.19-6-11.15-8.08-17.49-10.89
	c-3.01-1.36-3.88-0.98-6.56-2.86c-2.68-1.89-4.16-2.02-5.28-5.47c-0.15-0.49-0.3-0.96-0.48-1.44c1.83-2.32,3.39-4.82,4.51-7.54
	c1.25-2.98,2.25-6.51,3.05-9.99c5.18-0.49,5.69-10.64,2-13.13c-0.19-0.13-0.03-2.83-0.07-3.25c-0.1-1.26-0.27-2.52-0.53-3.76
	c-0.53-2.59-1.39-5.13-2.62-7.47c-2.52-4.8-6.6-8.41-11.87-9.88c-0.45-0.13-0.92-0.24-1.39-0.34c-0.05-0.01-0.11-0.02-0.16-0.03
	c-0.95-0.19-1.93-0.3-2.94-0.34c-0.04,0-0.08,0-0.11-0.01c-0.25-0.01-0.5-0.01-0.75-0.01c-0.25,0-0.51,0-0.75,0.01
	c-0.04,0-0.08,0-0.11,0.01c-0.84,0.03-1.65,0.12-2.45,0.25c-0.06,0.01-0.13,0.02-0.19,0.04c-0.29,0.05-0.58,0.11-0.86,0.17
	c-0.32,0.07-0.64,0.15-0.95,0.24c-10.48,3.21-15.52,13.96-15.12,24.37c-3.69,2.49-3.18,12.65,2,13.13c0.8,3.48,1.81,7.01,3.05,9.99
	c1.12,2.72,2.68,5.22,4.51,7.54c-0.18,0.48-0.33,0.95-0.48,1.44c-1.12,3.45-2.6,3.58-5.28,5.47c-2.68,1.88-3.55,1.5-6.56,2.86
	c-6.35,2.82-13.3,4.9-17.49,10.89c-4.51,6.46-5.69,14.12-7.06,21.73c-1.03,5.63,21.97,8.47,46.05,8.49h3.38
	C103.15,122.99,126.16,120.14,125.12,114.51z M45.21,81.21c1.37-0.62,2.8-1.21,4.22-1.81c1.25-0.54,2.5-1.07,3.71-1.6
	c1.38-0.61,2.39-0.92,3.2-1.17c1.06-0.33,1.52-0.47,2.64-1.24c0.67-0.47,1.29-0.84,1.78-1.14c1.09-0.68,1.38-0.84,1.61-1.37
	c-0.54-0.74-1.04-1.51-1.53-2.29C58.99,67.6,57.37,63.4,56,58.06c-2.72-1.67-4.6-5.01-4.97-9.12c-0.3-3.35,0.58-6.52,2.29-8.72
	c0.09-7.91,2.75-14.94,7.58-19.98c1.97-2.07,4.26-3.72,6.77-4.92C64.78,6.67,57.71,1,48.64,1C36.32,1,27.62,11.48,28.2,25.67
	c-1.59,1.04-2.59,3.64-2.32,6.59c0.3,3.43,2.18,6.11,4.34,6.33c1.15,4.99,2.78,10.09,4.84,13.42c0.85,1.36,1.75,2.61,2.69,3.8
	c-0.15,0.47-0.32,0.93-0.47,1.41c-1.15,3.41-2.61,3.55-5.26,5.39c-2.7,1.83-3.57,1.47-6.57,2.8c-2.54,1.11-5.33,2.25-7.91,3.4
	c-5.12,2.29-7.96,4.25-11.23,9.91c-1.6,2.77-3.28,7.1-3.9,10.42l-1.53,8.37c-0.71,3.96,11.04,6.54,26.67,7.67
	c0.02-0.23,0.04-0.38,0.08-0.49v-0.01c0.63-3.62,2.48-8.48,4.39-11.79C35.82,86.28,39.44,83.79,45.21,81.21z"/>
</svg>
