<?xml version="1.0" encoding="utf-8"?>
<!-- Generator: Adobe Illustrator 23.0.4, SVG Export Plug-In . SVG Version: 6.00 Build 0)  -->
<svg version="1.1" id="Layer_1" xmlns="http://www.w3.org/2000/svg" xmlns:xlink="http://www.w3.org/1999/xlink" x="0px" y="0px"
	 viewBox="0 0 106 158" style="enable-background:new 0 0 106 158;" xml:space="preserve">
<style type="text/css">
	.st0{fill:#73E9FF;}
</style>
<path id="news-emblem" class="st0" d="M60.54,42.78c2.97-2.28,4.89-5.85,4.89-9.88c0-6.88-5.57-12.45-12.43-12.45
	c-6.86,0-12.43,5.58-12.43,12.45c0,4.03,1.92,7.61,4.89,9.88L1,153.03l9.79,3.97l4.32-10.72l39.32-22.74l35.58,20.58L95.21,157
	l9.79-3.97L60.54,42.78z M64,79.6l4.48,11.11l-8.62-7.5L64,79.6z M53,52.32l7.46,18.51l-7.4,6.45l-7.49-6.52L53,52.32z M42.03,79.52
	l4.22,3.68l-8.8,7.66L42.03,79.52z M20.55,132.81l9.44-23.41l15.52,8.98L20.55,132.81z M37,103.12l16.06-13.99l17.16,14.94
	l-15.79,9.13L37,103.12z M63.36,118.37l13.2-7.63l8.03,19.91L63.36,118.37z M64.82,44.74l4.91,4.92c4.29-4.29,6.94-10.22,6.94-16.76
	s-2.65-12.47-6.94-16.76l-4.91,4.92c3.03,3.03,4.9,7.22,4.9,11.84C69.72,37.52,67.85,41.71,64.82,44.74z M79.93,59.88l4.91,4.92
	c8.16-8.17,13.21-19.46,13.21-31.9S92.99,9.17,84.84,1l-4.91,4.92c6.9,6.91,11.17,16.46,11.17,26.98S86.83,52.97,79.93,59.88z
	 M72.35,52.29l4.91,4.92c6.22-6.23,10.07-14.83,10.07-24.31S83.48,14.82,77.26,8.59l-4.91,4.92c4.96,4.97,8.03,11.83,8.03,19.39
	C80.38,40.46,77.31,47.32,72.35,52.29z M36.27,49.66l4.91-4.92c-3.03-3.03-4.9-7.22-4.9-11.84s1.88-8.81,4.9-11.84l-4.91-4.92
	c-4.29,4.29-6.94,10.22-6.94,16.76S31.99,45.36,36.27,49.66z M26.07,59.88C19.17,52.97,14.9,43.42,14.9,32.9s4.27-20.07,11.17-26.98
	L21.16,1C13.01,9.17,7.95,20.46,7.95,32.9s5.05,23.73,13.21,31.9L26.07,59.88z M28.74,57.21l4.91-4.92
	c-4.96-4.97-8.03-11.83-8.03-19.39s3.07-14.42,8.03-19.39l-4.91-4.92c-6.22,6.23-10.07,14.83-10.07,24.31S22.52,50.98,28.74,57.21z"
	/>
</svg>
