<svg version="1.1" id="github_main_logo" xmlns="http://www.w3.org/2000/svg" xmlns:xlink="http://www.w3.org/1999/xlink" x="0px" y="0px"
	 viewBox="0 0 102 102" style="enable-background:new 0 0 102 102;" xml:space="preserve">
<style type="text/css">
	.st0{fill:#13D2FF;}
</style>
<path id="githublogo" class="st0" d="M101,51c0,27.64-22.38,50-50.03,50C23.38,101,1,78.64,1,51C1,23.41,23.38,1,50.97,1
	C78.62,1,101,23.41,101,51z M63.91,91.62c15-5.66,29.46-21.67,29.46-40.62c0-23.29-19-42.19-42.3-42.19
	C27.81,8.81,9.02,27.71,9.02,51c0,18.95,9.86,35.01,29.87,40.63v-7.95c-15.01,2.78-15.06-5.77-15.06-5.77
	c-1.95-5.03-4.87-6.34-4.87-6.34c-3.96-2.69,0.25-2.64,0.25-2.64c4.36,0.3,6.62,4.44,6.62,4.44c4.1,7.04,10.89,4.49,12.99,3.47
	c0.63-3.08,3.02-3.71,3.8-3.96C31.54,71.7,19.66,67.7,19.66,48.52c0-5.38,1.91-9.77,5.03-13.19c-0.49-1.26-2.2-6.25,0.49-13.04
	c0,0,4.16-1.31,13.54,5.03c3.91-1.07,8.11-1.61,12.31-1.65c4.15,0.04,8.35,0.58,12.31,1.65c9.38-6.34,13.48-5.03,13.48-5.03
	c2.69,6.79,1.02,11.77,0.49,13.04c3.17,3.42,5.08,7.81,5.08,13.19c0,19.18-11.69,23.14-22.77,24.31c1.99,1.37,4.29,3.96,4.29,8.89
	C63.91,81.72,63.91,91.62,63.91,91.62z"/>
</svg>
