<?xml version="1.0" encoding="utf-8"?>
<!-- Generator: Adobe Illustrator 23.0.4, SVG Export Plug-In . SVG Version: 6.00 Build 0)  -->
<svg version="1.1" id="googleplus_main_logo" xmlns="http://www.w3.org/2000/svg" xmlns:xlink="http://www.w3.org/1999/xlink" x="0px" y="0px"
	 viewBox="0 0 100 102" style="enable-background:new 0 0 100 102;" xml:space="preserve">
<style type="text/css">
	.st0{fill:#13D2FF;}
</style>
<path id="googleplus" class="st0" d="M44.93,49.64c-1.19-5.53,4.84-8.49,7.46-10.61c7.76-6.25,9.95-18.82,3.16-27.89
	c-1.15-1.54-2.49-3.43-4.28-4.28c-0.15-0.2-0.32-0.41-0.47-0.6c2.63-0.09,5.28-0.13,7.93-0.2c2.72-1.63,5.47-3.27,8.23-4.88h0.31
	C57.01,1.13,46.77,1.06,36.53,1c-2.86,0.33-5.71,0.65-8.57,0.95c-7.21,1.8-13.39,5.03-16.79,10.63
	c-7.32,12.01-2.03,27.16,8.41,31.69c4.01,1.74,8.96,2.16,14.42,1.74v0.15c-3.75,7.76,0.85,8.94,2.53,14.09
	c-15.78-0.02-38.64,7.1-35.18,24.57c3.16,15.93,28.57,19.64,45.16,13.14c11.41-4.45,24.72-18.93,13.95-33.24
	C57.34,60.56,45.84,53.85,44.93,49.64z M19.89,13.99c1.88-6.28,4.81-6.12,10.63-8.38c16.87-0.17,25.73,32.3,7.91,37.22
	C25.83,46.32,16.18,26.36,19.89,13.99z M53.48,88.29c-5.75,9.1-25.98,8.71-34.69,2.55c-10.89-7.71-6.11-20.59,4.43-24.87
	c3.23-0.7,6.45-1.38,9.67-2.06c1.86-0.1,3.71-0.23,5.55-0.33C47.22,65.78,60.66,76.96,53.48,88.29z M85.34,43.62V30.16h-6.19v13.47
	H65.68v6.18h13.47v13.62h6.19V49.8h13.61v-6.18H85.34z"/>
</svg>
