<?xml version="1.0" encoding="utf-8"?>
<!-- Generator: Adobe Illustrator 23.0.4, SVG Export Plug-In . SVG Version: 6.00 Build 0)  -->
<svg version="1.1" id="linkedin_main_logo" xmlns="http://www.w3.org/2000/svg" xmlns:xlink="http://www.w3.org/1999/xlink" x="0px" y="0px"
	 viewBox="0 0 106 102" style="enable-background:new 0 0 106 102;" xml:space="preserve">
<style type="text/css">
	.st0{fill:#13D2FF;}
</style>
<path id="linkedin_logo_4_" class="st0" d="M1,101h19.81V26H1V101z M103.44,42.4c-0.68-2.91-2.16-5.51-3.88-7.8
	c-1.72-2.3-4.4-4.18-7.76-5.66c-3.36-1.47-8.21-2.21-12.27-2.21c-9.2,0-14.14,3.96-24.05,11.89V26H40.62v75h19.81V66.72
	c0-7.85-0.28-13.23,0.66-16.13c0.94-2.91,2.29-5.24,4.83-7.01c2.54-1.76,5.21-2.64,8.4-2.64c2.48,0,4.52,0.62,6.28,1.86
	c1.76,1.23,2.84,2.96,3.63,5.19c0.78,2.23,0.96,7.13,0.96,14.71V101H105V54.89C105,49.47,104.12,45.3,103.44,42.4z M1,21h19.81V1H1
	V21z"/>
</svg>
