<svg version="1.1" id="twitter_main_logo" xmlns="http://www.w3.org/2000/svg" xmlns:xlink="http://www.w3.org/1999/xlink" x="0px" y="0px"
	 viewBox="0 0 146 102" style="enable-background:new 0 0 146 102;" xml:space="preserve">
<style type="text/css">
	.st0{fill:#45B5E0;}
</style>
<path id="twitter" class="st0" d="M145,47.12c-5.07,0.87-12.42-0.03-16.31-1.67c8.09-0.66,13.57-4.38,15.67-9.39
	c-2.91,1.79-11.98,3.78-16.97,1.9c-0.24-1.2-0.52-2.31-0.8-3.32c-3.79-14.1-16.85-25.47-30.5-24.1c1.1-0.45,2.21-0.88,3.34-1.26
	c1.49-0.54,10.32-1.99,8.94-5.13c-1.18-2.77-11.96,2.08-13.99,2.73c2.68-1.02,7.13-2.78,7.59-5.87c-4.1,0.57-8.14,2.52-11.27,5.36
	c1.15-1.22,2-2.7,2.17-4.32C81.91,9.11,75.51,23.34,70.35,37.15c-4.09-3.98-7.69-7.11-10.92-8.84
	c-9.07-4.91-19.92-10.04-36.94-16.39c-0.52,5.66,2.79,13.22,12.3,18.24c-2.06-0.29-5.84,0.35-8.85,1.07
	c1.23,6.5,5.24,11.87,16.13,14.45c-4.98,0.35-7.55,1.48-9.89,3.94c2.27,4.54,7.8,9.86,17.73,8.75c-11.06,4.82-4.49,13.72,4.49,12.38
	C39.08,86.72,14.9,85.54,1,72.19c36.26,49.8,115.08,29.44,126.82-18.53C136.61,53.73,141.77,50.6,145,47.12z"/>
</svg>
